HIERARCHY
ROOT Hips
{
    OFFSET 0.0 0.0 0.0
    CHANNELS 6 Xposition Yposition Zposition Zrotation Xrotation Yrotation
    JOINT Spine
    {
        OFFSET 0.0 5.0 0.0
        CHANNELS 3 Zrotation Xrotation Yrotation
        JOINT Chest
        {
            OFFSET 0.0 5.0 0.0
            CHANNELS 3 Zrotation Xrotation Yrotation
            JOINT Neck
            {
                OFFSET 0.0 8.0 0.0
                CHANNELS 3 Zrotation Xrotation Yrotation
                JOINT Head
                {
                    OFFSET 0.0 5.0 0.0
                    CHANNELS 3 Zrotation Xrotation Yrotation
                    End Site
                    {
                        OFFSET 0.0 3.0 0.0
                    }
                }
            }
            JOINT LeftShoulder
            {
                OFFSET -5.0 0.0 0.0
                CHANNELS 3 Zrotation Xrotation Yrotation
                JOINT LeftArm
                {
                    OFFSET 0.0 -10.0 0.0
                    CHANNELS 3 Zrotation Xrotation Yrotation
                    JOINT LeftForeArm
                    {
                        OFFSET 0.0 -10.0 0.0
                        CHANNELS 3 Zrotation Xrotation Yrotation
                        End Site
                        {
                            OFFSET 0.0 -3.0 0.0
                        }
                    }
                }
            }
        }
    }
}

MOTION
Frames: 44
Frame Time: 0.033333
970.000000 442.938926 149.606941 0.000000 0.000000 0.000000 0.000000 0.000000 0.000000 29.678605 9.252074 0.000000 180.000000 -3.247463 0.000000 29.744881 10.365565 -0.000000 150.255119 -0.098553 30.000000 19.983107 -2.925046 0.000000 18.000000 0.033055 0.000000
1354.522934 467.411410 141.010528 0.000000 0.000000 0.000000 0.000000 0.000000 0.000000 150.622570 6.932317 4.973798 -29.377430 -5.855129 4.973798 140.176400 -2.046997 3.759997 -12.221629 -1.694799 29.763441 132.794256 -3.726570 -3.759997 -2.626015 0.287273 0.313953
969.997807 442.887864 118.082917 0.000000 0.000000 0.000000 0.000000 0.000000 0.000000 31.061399 -7.561766 9.635073 180.000000 3.091171 9.635073 30.285790 -9.406623 7.460697 149.714210 -3.173526 29.057495 19.151579 -4.196804 -7.460697 18.000000 0.969918 0.626666
1246.736984 514.278152 120.342819 0.000000 0.000000 0.000000 0.000000 0.000000 0.000000 143.557092 -1.371890 13.690942 -36.442908 -4.551854 13.690942 133.761037 6.327404 11.043737 -156.950665 -5.914929 27.893295 0.000000 0.000000 0.000000 1.928484 0.477942 0.936907
1245.221100 458.637464 119.855832 0.000000 0.000000 0.000000 0.000000 0.000000 0.000000 160.701064 -19.073510 16.886559 -19.298936 24.851612 16.886559 140.193827 -10.321467 14.452610 -157.554825 -5.034185 26.289200 29.500467 6.315598 -14.452610 -15.049953 -0.631560 1.243449
1257.365570 418.514181 121.608136 0.000000 0.000000 0.000000 0.000000 0.000000 0.000000 -143.710676 -2.906147 19.021130 36.289324 10.664816 19.021130 163.220413 -0.270629 17.633558 11.688054 5.378229 24.270510 152.038385 -3.172525 -17.633558 -2.339948 0.107892 1.545085
1275.099564 408.163741 103.412025 0.000000 0.000000 0.000000 0.000000 0.000000 0.000000 -132.929531 -6.199906 19.960535 47.070469 -5.323552 19.960535 173.491912 5.251318 20.536413 -160.709681 -4.651588 21.869059 33.138793 6.127858 -20.536413 -14.686121 -0.612786 1.840623
1290.611115 384.880857 107.835263 0.000000 0.000000 0.000000 0.000000 0.000000 0.000000 -132.705235 -5.033831 19.645745 47.294765 7.497286 19.645745 -173.778854 -2.342838 23.115397 20.496835 -3.687033 19.122720 -161.220290 -3.226613 -23.115397 1.723235 0.343850 2.128896
1302.817154 380.305352 94.512123 0.000000 0.000000 0.000000 0.000000 0.000000 0.000000 -131.493915 -3.296578 18.096541 48.506085 13.162785 18.096541 -165.393697 -5.771137 25.329838 23.154815 -0.145851 16.074804 -178.200316 -0.396624 -25.329838 0.138141 0.060337 2.408768
1304.997711 379.563582 97.598481 0.000000 0.000000 0.000000 0.000000 0.000000 0.000000 -126.727972 -2.832964 15.410265 53.272028 2.242099 15.410265 -160.219593 0.884158 27.144812 28.448880 0.558149 12.773379 -174.368770 0.586158 -27.144812 0.079526 0.103803 2.679134
1311.668472 386.890390 78.199019 0.000000 0.000000 0.000000 0.000000 0.000000 0.000000 -122.308728 3.319356 11.755705 57.691272 14.059778 11.755705 -158.801130 0.256073 28.531695 150.942637 5.694272 9.270510 -154.878332 -4.865217 -28.531695 2.695409 0.579351 2.938926
1305.131836 395.180186 65.657328 0.000000 0.000000 0.000000 0.000000 0.000000 0.000000 -125.112810 -0.567911 7.362491 54.887190 10.985863 7.362491 -146.487292 -7.325370 29.468618 -175.167369 -2.101588 5.621439 -159.224034 -4.145580 -29.468618 1.782042 0.515782 3.187120
1296.320457 392.734526 98.777665 0.000000 0.000000 0.000000 0.000000 0.000000 0.000000 -131.035750 -15.886989 2.506665 48.964250 16.359965 2.506665 -128.969563 -2.545375 29.940802 38.856147 2.837708 1.883716 -134.776850 0.715692 -29.940802 3.458429 0.029140 3.422736
1306.963577 386.612041 79.920040 0.000000 0.000000 0.000000 0.000000 0.000000 0.000000 -124.469622 -11.059726 -2.506665 55.530378 10.580805 -2.506665 -109.994856 -6.314965 29.940802 37.691309 0.152103 -1.883716 -118.274788 1.081913 -29.940802 5.098336 -0.090358 3.644843
969.892723 442.572198 53.103570 0.000000 0.000000 0.000000 0.000000 0.000000 0.000000 41.287575 17.603813 -7.362491 180.000000 5.786723 -7.362491 30.974696 -11.115471 29.468618 149.025304 -10.427558 -5.621439 15.072869 6.566195 -29.468618 18.000000 -0.287979 3.852566
969.876883 442.545207 62.185595 0.000000 0.000000 0.000000 0.000000 0.000000 0.000000 42.241956 30.187854 -11.755705 180.000000 -15.373923 -11.755705 30.826133 12.184489 28.531695 149.173867 2.306734 -9.270510 14.823070 -2.450632 -28.531695 18.000000 0.543908 4.045085
969.859960 442.518116 65.192349 0.000000 0.000000 0.000000 0.000000 0.000000 0.000000 43.199779 0.985523 -15.410265 180.000000 -12.767577 -15.410265 30.649504 -7.391490 27.144812 149.350496 -14.874533 -12.773379 14.587557 2.309489 -27.144812 18.000000 0.155397 4.221640
969.841956 442.490926 55.484678 0.000000 0.000000 0.000000 0.000000 0.000000 0.000000 44.157210 -14.798310 -18.096541 180.000000 -23.139545 -18.096541 30.446417 22.425234 25.329838 149.553583 2.479816 -16.074804 14.366154 -2.958250 -25.329838 18.000000 0.162196 4.381533
969.822873 442.463637 51.506117 0.000000 0.000000 0.000000 0.000000 0.000000 0.000000 45.110117 29.268588 -19.645745 180.000000 6.499787 -19.645745 30.218633 -16.183985 23.115397 149.781367 -5.742276 -19.122720 14.158653 3.022983 -23.115397 18.000000 -0.265093 4.524135
969.802712 442.436251 51.441528 0.000000 0.000000 0.000000 0.000000 0.000000 0.000000 46.054109 -4.528891 -19.960535 180.000000 9.541120 -19.960535 29.968037 2.004377 20.536413 150.031963 11.114294 -21.869059 13.964823 0.248808 -20.536413 18.000000 -0.118018 4.648882
1187.040939 541.658249 54.153585 0.000000 0.000000 0.000000 0.000000 0.000000 0.000000 82.806623 2.716082 -19.021130 -97.193377 -15.358734 -19.021130 45.395981 7.299607 17.633558 -156.144455 -2.651169 -24.270510 0.000000 0.000000 0.000000 0.000000 0.000000 0.000000
1182.242889 522.024286 52.534773 0.000000 0.000000 0.000000 0.000000 0.000000 0.000000 -105.721938 13.717653 -16.886559 74.278062 -4.177035 -16.886559 -155.708006 -2.494064 14.452610 -157.302521 -2.702994 -26.289200 0.000000 0.000000 0.000000 2.684983 0.228346 4.842916
1180.914459 527.065626 44.546897 0.000000 0.000000 0.000000 0.000000 0.000000 0.000000 88.055617 -11.320801 -13.690942 -91.944383 3.233424 -13.690942 -158.862018 -2.146041 11.043737 -151.747289 -1.580986 -27.893295 0.000000 0.000000 0.000000 0.000000 0.000000 0.000000
1236.800194 541.387432 50.723027 0.000000 0.000000 0.000000 0.000000 0.000000 0.000000 -85.588400 20.018608 -9.635073 94.411600 -2.397233 -9.635073 -159.297106 1.397510 7.460697 -157.915391 -2.329541 -29.057495 26.607362 3.051073 -7.460697 14.926890 -1.633546 4.960574
1161.066513 575.006626 41.999409 0.000000 0.000000 0.000000 0.000000 0.000000 0.000000 -81.021168 0.614167 -4.973798 98.978832 -4.904420 -4.973798 -102.851701 2.406142 3.759997 -157.041007 -2.269866 -29.763441 21.429890 2.298767 -3.759997 10.859432 -0.097457 4.990134
1255.636253 512.645942 50.759677 0.000000 0.000000 0.000000 0.000000 0.000000 0.000000 77.832564 -4.556354 -0.000000 -102.167436 -6.542123 -0.000000 -158.264834 -1.613190 0.000000 -130.745502 0.013726 -30.000000 -157.699225 -2.770598 -0.000000 0.000000 0.000000 0.000000
1265.118484 521.473864 49.247254 0.000000 0.000000 0.000000 0.000000 0.000000 0.000000 64.078276 -1.109419 4.973798 -115.921724 0.500581 4.973798 41.397952 -1.880404 -3.759997 -139.329851 2.698413 -29.763441 20.223252 -1.584429 3.759997 -16.047574 -0.075444 4.990134
1228.099480 522.138258 49.610530 0.000000 0.000000 0.000000 0.000000 0.000000 0.000000 71.050901 3.704870 9.635073 -108.949099 -6.085909 9.635073 150.099970 3.207566 -7.460697 -139.894702 -1.553858 -29.057495 -156.275691 -2.890506 7.460697 0.000000 0.000000 0.000000
1240.357246 528.695873 44.966656 0.000000 0.000000 0.000000 0.000000 0.000000 0.000000 65.413351 -5.239069 13.690942 -114.586649 17.920831 13.690942 147.242328 -20.501578 -11.043737 -154.470720 -1.967500 -27.893295 25.557225 2.210361 11.043737 -15.444278 -0.221036 4.911436
1231.815262 551.380248 43.559752 0.000000 0.000000 0.000000 0.000000 0.000000 0.000000 56.412506 4.655744 16.886559 -123.587494 15.653851 16.886559 -153.392336 -3.635247 -14.452610 -154.784582 -1.955149 -26.289200 24.191555 3.717499 14.452610 -15.580844 -0.371750 4.842916
1221.475182 508.360147 73.539718 0.000000 0.000000 0.000000 0.000000 0.000000 0.000000 77.450622 -17.155152 19.021130 -102.549378 -3.065564 19.021130 -156.789784 -2.276767 -17.633558 -125.590168 -1.372704 -24.270510 -160.017240 -2.565138 17.633558 1.833434 0.323094 4.755283
969.477684 442.100429 74.645379 0.000000 0.000000 0.000000 0.000000 0.000000 0.000000 54.932575 -32.025163 19.960535 180.000000 18.717325 19.960535 25.919122 -7.599923 -20.536413 154.080878 0.086323 -21.869059 12.612867 -0.233093 20.536413 18.000000 0.660842 4.648882
1480.140495 518.878891 79.454853 0.000000 0.000000 0.000000 0.000000 0.000000 0.000000 -110.621767 -88.447649 19.645745 69.378233 88.498258 19.645745 -158.235933 -2.837828 -23.115397 166.031448 2.997984 -19.122720 -155.186432 -2.243754 23.115397 2.641553 0.309575 4.524135
1271.640472 556.840560 68.259429 0.000000 0.000000 0.000000 0.000000 0.000000 0.000000 -94.404719 -19.370125 18.096541 85.595281 -0.100707 18.096541 -62.417786 1.549799 -25.329838 23.992813 0.363376 -16.074804 -76.856107 -1.605156 25.329838 7.708835 0.075049 4.381533
1258.556786 530.268441 60.871757 0.000000 0.000000 0.000000 0.000000 0.000000 0.000000 78.355945 -11.898424 15.410265 -101.644055 6.039840 15.410265 35.068294 -2.308931 -27.144812 -54.090640 3.456397 -12.773379 35.848220 3.188547 27.144812 -8.104639 -0.988378 4.221640
1250.800209 527.150567 73.712753 0.000000 0.000000 0.000000 0.000000 0.000000 0.000000 72.417769 3.685943 11.755705 -107.582231 4.464766 11.755705 24.571109 -3.116947 -28.531695 -39.196117 6.290198 -9.270510 10.411117 -2.049632 28.531695 -9.048616 -3.422578 4.045085
1243.466148 571.776259 66.056865 0.000000 0.000000 0.000000 0.000000 0.000000 0.000000 86.301473 9.957183 7.362491 -93.698527 -6.202418 7.362491 24.553534 -3.080741 -29.468618 -153.460385 -4.170347 -5.621439 19.510484 3.173200 29.468618 -10.109500 -0.383515 3.852566
1261.883812 566.052918 67.216838 0.000000 0.000000 0.000000 0.000000 0.000000 0.000000 94.015209 7.520111 2.506665 -85.984791 -7.056596 2.506665 38.959993 -1.749475 -29.940802 -154.008305 -4.340291 -1.883716 20.870951 2.975643 29.940802 -10.872440 1.754540 3.644843
1284.436798 527.190542 116.045555 0.000000 0.000000 0.000000 0.000000 0.000000 0.000000 111.186365 0.645639 -2.506665 -68.813635 -6.567869 -2.506665 58.506163 4.218830 -29.940802 -19.138727 1.634686 1.883716 51.457372 -2.803540 29.940802 -5.203198 0.226813 3.422736
1272.860069 533.494012 97.056095 0.000000 0.000000 0.000000 0.000000 0.000000 0.000000 72.301471 21.942166 -7.362491 -107.698529 -1.639053 -7.362491 78.802573 2.095348 -29.468618 -154.772375 -4.693581 5.621439 26.927455 3.523551 29.468618 -15.307255 -0.352355 3.187120
1255.264664 498.243735 95.462173 0.000000 0.000000 0.000000 0.000000 0.000000 0.000000 164.596971 -54.645512 -11.755705 -15.403029 58.985033 -11.755705 125.849126 -8.003761 -28.531695 -156.067666 -4.657781 9.270510 33.087561 4.692710 28.531695 -14.691244 -0.469271 2.938926
1259.202232 470.407684 100.212205 0.000000 0.000000 0.000000 0.000000 0.000000 0.000000 -139.980397 -2.292877 -15.410265 40.019603 -14.918701 -15.410265 165.887722 4.535915 -27.144812 -157.901492 -5.221080 12.773379 35.196094 5.233440 27.144812 -14.480391 -0.523344 2.679134
1236.502075 429.951335 116.156546 0.000000 0.000000 0.000000 0.000000 0.000000 0.000000 -113.295066 9.586758 -18.096541 66.704934 -14.281179 -18.096541 -174.664169 -0.459341 -25.329838 -159.007335 -6.513729 16.074804 32.868990 6.631342 25.329838 -14.713101 -0.663134 2.408768
1253.359451 413.942538 132.883535 0.000000 0.000000 0.000000 0.000000 0.000000 0.000000 -123.348580 8.433328 -19.645745 56.651420 8.486770 -19.645745 -167.815074 -4.585360 -23.115397 -159.603180 -5.989977 19.122720 32.791747 6.332309 23.115397 -14.720825 -0.633231 2.128896
